<?xml version="1.0" encoding="UTF-8" standalone="no"?>
<!-- Created with Inkscape (http://www.inkscape.org/) -->

<svg
   xmlns:dc="http://purl.org/dc/elements/1.1/"
   xmlns:cc="http://creativecommons.org/ns#"
   xmlns:rdf="http://www.w3.org/1999/02/22-rdf-syntax-ns#"
   xmlns:svg="http://www.w3.org/2000/svg"
   xmlns="http://www.w3.org/2000/svg"
   xmlns:sodipodi="http://sodipodi.sourceforge.net/DTD/sodipodi-0.dtd"
   xmlns:inkscape="http://www.inkscape.org/namespaces/inkscape"
   width="163.88457mm"
   height="38.707714mm"
   viewBox="0 0 163.88457 38.707714"
   version="1.1"
   id="svg8"
   inkscape:version="0.92.4 (5da689c313, 2019-01-14)"
   sodipodi:docname="assertive solutions 163x38.svg">
  <defs
     id="defs2" />
  <sodipodi:namedview
     id="base"
     pagecolor="#ffffff"
     bordercolor="#666666"
     borderopacity="1.0"
     inkscape:pageopacity="0.0"
     inkscape:pageshadow="2"
     inkscape:zoom="0.7"
     inkscape:cx="57.88272"
     inkscape:cy="-214.62994"
     inkscape:document-units="mm"
     inkscape:current-layer="layer1"
     showgrid="false"
     inkscape:window-width="1920"
     inkscape:window-height="1001"
     inkscape:window-x="2391"
     inkscape:window-y="-9"
     inkscape:window-maximized="1"
     fit-margin-top="0"
     fit-margin-left="0"
     fit-margin-right="0"
     fit-margin-bottom="0" />
  <metadata
     id="metadata5">
    <rdf:RDF>
      <cc:Work
         rdf:about="">
        <dc:format>image/svg+xml</dc:format>
        <dc:type
           rdf:resource="http://purl.org/dc/dcmitype/StillImage" />
        <dc:title></dc:title>
      </cc:Work>
    </rdf:RDF>
  </metadata>
  <g
     inkscape:label="Layer 1"
     inkscape:groupmode="layer"
     id="layer1"
     transform="translate(-21.610825,-50.705643)">
    <g
       aria-label="ASSERTIVE
SOLUTIONS"
       transform="scale(0.26458333)"
       style="font-style:normal;font-weight:normal;font-size:40px;line-height:1;font-family:sans-serif;letter-spacing:0px;word-spacing:0px;fill:#000000;fill-opacity:1;stroke:none"
       id="flowRoot10">
      <path
         d="m 111.25684,191.64338 h 15.98437 q 0.46875,0.42187 9.89063,16.45312 19.03125,32.29688 19.82812,33.75 v 0.0937 h -18.46875 q -0.65625,-0.65625 -17.10937,-28.78125 -2.01563,-3.375 -2.10938,-3.375 -18.51562,31.45313 -19.03125,32.15625 H 81.678711 v -0.23437 Q 110.17871,193.284 111.25684,191.64338 Z"
         style="font-style:normal;font-variant:normal;font-weight:normal;font-stretch:normal;font-size:96px;line-height:1;font-family:ASTERA;-inkscape-font-specification:ASTERA;text-align:center;text-anchor:middle;fill:#182f89;fill-opacity:1"
         id="path4533" />
      <path
         d="m 177.39746,191.64338 h 53.20313 q 0.23437,0.0469 0.23437,0.23437 v 11.48438 q 0,0.23437 -0.23437,0.23437 h -48.70313 q -4.07812,0.51563 -4.07812,3.9375 0,2.29688 2.48437,3.46875 0.75,0.32813 1.78125,0.32813 h 33.09375 q 6.98438,0 12.375,5.53125 3.28125,3.79687 3.28125,8.10937 v 3.46875 q 0,7.35938 -8.57812,11.90625 -3.5625,1.59375 -7.3125,1.59375 h -52.96875 q -0.23438,0 -0.23438,-0.23437 V 230.2215 q 0.0469,-0.1875 0.23438,-0.1875 h 48.46875 q 2.95312,0 4.07812,-2.625 0.1875,-1.125 0.1875,-1.3125 0,-2.34375 -2.4375,-3.51562 -0.75,-0.32813 -1.82812,-0.32813 h -32.625 q -8.0625,0 -13.5,-6.28125 -2.57813,-3.42187 -2.57813,-7.21875 V 205.284 q 0,-6.89062 7.64063,-11.39062 4.35937,-2.01563 8.01562,-2.25 z"
         style="font-style:normal;font-variant:normal;font-weight:normal;font-stretch:normal;font-size:96px;line-height:1;font-family:ASTERA;-inkscape-font-specification:ASTERA;text-align:center;text-anchor:middle;fill:#182f89;fill-opacity:1"
         id="path4535" />
      <path
         d="m 251.27246,191.64338 h 53.20313 q 0.23437,0.0469 0.23437,0.23437 v 11.48438 q 0,0.23437 -0.23437,0.23437 h -48.70313 q -4.07812,0.51563 -4.07812,3.9375 0,2.29688 2.48437,3.46875 0.75,0.32813 1.78125,0.32813 h 33.09375 q 6.98438,0 12.375,5.53125 3.28125,3.79687 3.28125,8.10937 v 3.46875 q 0,7.35938 -8.57812,11.90625 -3.5625,1.59375 -7.3125,1.59375 h -52.96875 q -0.23438,0 -0.23438,-0.23437 V 230.2215 q 0.0469,-0.1875 0.23438,-0.1875 h 48.46875 q 2.95312,0 4.07812,-2.625 0.1875,-1.125 0.1875,-1.3125 0,-2.34375 -2.4375,-3.51562 -0.75,-0.32813 -1.82812,-0.32813 h -32.625 q -8.0625,0 -13.5,-6.28125 -2.57813,-3.42187 -2.57813,-7.21875 V 205.284 q 0,-6.89062 7.64063,-11.39062 4.35937,-2.01563 8.01562,-2.25 z"
         style="font-style:normal;font-variant:normal;font-weight:normal;font-stretch:normal;font-size:96px;line-height:1;font-family:ASTERA;-inkscape-font-specification:ASTERA;text-align:center;text-anchor:middle;fill:#182f89;fill-opacity:1"
         id="path4537" />
      <path
         d="m 309.72559,191.64338 h 68.625 q 0.23437,0.0469 0.23437,0.23437 v 11.48438 q 0,0.23437 -0.23437,0.23437 h -68.625 q -0.23438,0 -0.23438,-0.23437 v -11.48438 q 0.0469,-0.23437 0.23438,-0.23437 z m 0,19.6875 h 68.625 q 0.23437,0.0469 0.23437,0.23437 v 10.45313 q 0,0.23437 -0.23437,0.23437 h -68.625 q -0.23438,0 -0.23438,-0.23437 v -10.45313 q 0.0469,-0.23437 0.23438,-0.23437 z m 0,18.70312 h 68.625 q 0.23437,0 0.23437,0.1875 v 11.48438 q 0,0.23437 -0.23437,0.23437 h -68.625 q -0.23438,0 -0.23438,-0.23437 V 230.2215 q 0.0469,-0.1875 0.23438,-0.1875 z"
         style="font-style:normal;font-variant:normal;font-weight:normal;font-stretch:normal;font-size:96px;line-height:1;font-family:ASTERA;-inkscape-font-specification:ASTERA;text-align:center;text-anchor:middle;fill:#182f89;fill-opacity:1"
         id="path4539" />
      <path
         d="m 383.60059,191.64338 h 52.96875 q 7.21875,0 12.60937,5.53125 3.28125,3.79687 3.28125,8.20312 v 9.09375 q 0,7.07813 -7.78125,11.71875 l -2.01562,0.89063 9.79687,14.76562 -0.23437,0.0937 h -19.03125 q -0.70313,-0.79687 -9.32813,-13.82812 h -24.42187 v 13.59375 q 0,0.23437 -0.23438,0.23437 h -15.60937 q -0.23438,0 -0.23438,-0.23437 v -49.82813 q 0.0469,-0.23437 0.23438,-0.23437 z m 15.84375,11.95312 v 12.5625 h 30.51562 q 4.875,0 6.1875,-4.26562 0.1875,-0.98438 0.1875,-1.92188 0,-4.54687 -3.79687,-6.04687 -1.17188,-0.32813 -2.39063,-0.32813 z"
         style="font-style:normal;font-variant:normal;font-weight:normal;font-stretch:normal;font-size:96px;line-height:1;font-family:ASTERA;-inkscape-font-specification:ASTERA;text-align:center;text-anchor:middle;fill:#182f89;fill-opacity:1"
         id="path4541" />
      <path
         d="m 457.47559,191.64338 h 68.625 q 0.23437,0.0469 0.23437,0.23437 v 11.48438 q 0,0.23437 -0.23437,0.23437 h -26.20313 v 38.10938 q 0,0.23437 -0.23437,0.23437 h -15.65625 q -0.23438,0 -0.23438,-0.23437 V 203.5965 h -26.29687 q -0.23438,0 -0.23438,-0.23437 v -11.48438 q 0.0469,-0.23437 0.23438,-0.23437 z"
         style="font-style:normal;font-variant:normal;font-weight:normal;font-stretch:normal;font-size:96px;line-height:1;font-family:ASTERA;-inkscape-font-specification:ASTERA;text-align:center;text-anchor:middle;fill:#182f89;fill-opacity:1"
         id="path4543" />
      <path
         d="m 531.35059,191.64338 h 15.60937 q 0.23438,0.0469 0.23438,0.23437 v 49.82813 q 0,0.23437 -0.23438,0.23437 h -15.60937 q -0.23438,0 -0.23438,-0.23437 v -49.82813 q 0.0469,-0.23437 0.23438,-0.23437 z"
         style="font-style:normal;font-variant:normal;font-weight:normal;font-stretch:normal;font-size:96px;line-height:1;font-family:ASTERA;-inkscape-font-specification:ASTERA;text-align:center;text-anchor:middle;fill:#182f89;fill-opacity:1"
         id="path4545" />
      <path
         d="m 551.92871,191.64338 h 18.46875 q 0.84375,0.9375 6.1875,10.35937 0.42188,0.51563 12.9375,21.84375 h 0.0937 q 18.70313,-31.78125 19.03125,-32.20312 h 18.5625 q 0,0.46875 -14.20312,24.1875 -11.0625,18.9375 -15.42188,26.10937 h -16.07812 q -1.17188,-1.6875 -29.10938,-49.40625 -0.1875,0 -0.46875,-0.89062 z"
         style="font-style:normal;font-variant:normal;font-weight:normal;font-stretch:normal;font-size:96px;line-height:1;font-family:ASTERA;-inkscape-font-specification:ASTERA;text-align:center;text-anchor:middle;fill:#182f89;fill-opacity:1"
         id="path4547" />
      <path
         d="m 632.22559,191.64338 h 68.625 q 0.23437,0.0469 0.23437,0.23437 v 11.48438 q 0,0.23437 -0.23437,0.23437 h -68.625 q -0.23438,0 -0.23438,-0.23437 v -11.48438 q 0.0469,-0.23437 0.23438,-0.23437 z m 0,19.6875 h 68.625 q 0.23437,0.0469 0.23437,0.23437 v 10.45313 q 0,0.23437 -0.23437,0.23437 h -68.625 q -0.23438,0 -0.23438,-0.23437 v -10.45313 q 0.0469,-0.23437 0.23438,-0.23437 z m 0,18.70312 h 68.625 q 0.23437,0 0.23437,0.1875 v 11.48438 q 0,0.23437 -0.23437,0.23437 h -68.625 q -0.23438,0 -0.23438,-0.23437 V 230.2215 q 0.0469,-0.1875 0.23438,-0.1875 z"
         style="font-style:normal;font-variant:normal;font-weight:normal;font-stretch:normal;font-size:96px;line-height:1;font-family:ASTERA;-inkscape-font-specification:ASTERA;text-align:center;text-anchor:middle;fill:#182f89;fill-opacity:1"
         id="path4549" />
      <path
         d="m 103.52246,287.64338 h 53.20313 q 0.23437,0.0469 0.23437,0.23437 v 11.48438 q 0,0.23437 -0.23437,0.23437 h -48.70313 q -4.07812,0.51563 -4.07812,3.9375 0,2.29688 2.48437,3.46875 0.75,0.32813 1.78125,0.32813 h 33.09375 q 6.98438,0 12.375,5.53125 3.28125,3.79687 3.28125,8.10937 v 3.46875 q 0,7.35938 -8.57812,11.90625 -3.5625,1.59375 -7.3125,1.59375 H 88.100586 q -0.234375,0 -0.234375,-0.23437 V 326.2215 q 0.04687,-0.1875 0.234375,-0.1875 h 48.468754 q 2.95312,0 4.07812,-2.625 0.1875,-1.125 0.1875,-1.3125 0,-2.34375 -2.4375,-3.51562 -0.75,-0.32813 -1.82812,-0.32813 h -32.625 q -8.062504,0 -13.500004,-6.28125 -2.578125,-3.42187 -2.578125,-7.21875 V 301.284 q 0,-6.89062 7.640625,-11.39062 4.359375,-2.01563 8.015624,-2.25 z"
         style="font-style:normal;font-variant:normal;font-weight:normal;font-stretch:normal;font-size:96px;line-height:1;font-family:ASTERA;-inkscape-font-specification:ASTERA;text-align:center;text-anchor:middle;fill:#00c8ea;fill-opacity:1"
         id="path4551" />
      <path
         d="m 177.25684,287.64338 h 37.35937 q 8.4375,0 13.73438,6.51562 2.48437,3.46875 2.48437,7.3125 v 22.73438 q 0,7.64062 -8.57812,12.04687 -3.60938,1.6875 -7.64063,1.6875 h -36.89062 q -8.20313,0 -13.64063,-6.65625 -2.34375,-3.32812 -2.34375,-6.9375 v -22.96875 q 0,-8.01562 9.46875,-12.46875 3.75,-1.26562 6.04688,-1.26562 z m 0.5625,20.15625 v 9.89062 q 0,6.09375 6.32812,8.10938 0.89063,0.23437 1.875,0.23437 h 20.625 q 5.53125,0 7.73438,-5.85937 0.32812,-0.84375 0.32812,-2.25 v -9.5625 q 0,-6.42188 -5.95312,-8.57813 -1.73438,-0.1875 -3.04688,-0.1875 h -19.6875 q -5.67187,0 -7.875,5.8125 -0.32812,1.17188 -0.32812,2.39063 z"
         style="font-style:normal;font-variant:normal;font-weight:normal;font-stretch:normal;font-size:96px;line-height:1;font-family:ASTERA;-inkscape-font-specification:ASTERA;text-align:center;text-anchor:middle;fill:#00c8ea;fill-opacity:1"
         id="path4553" />
      <path
         d="m 235.85059,287.64338 h 15.60937 q 0.23438,0.0469 0.23438,0.23437 V 326.034 h 52.78125 q 0.23437,0 0.23437,0.1875 v 11.48438 q 0,0.23437 -0.23437,0.23437 h -68.625 q -0.23438,0 -0.23438,-0.23437 v -49.82813 q 0.0469,-0.23437 0.23438,-0.23437 z"
         style="font-style:normal;font-variant:normal;font-weight:normal;font-stretch:normal;font-size:96px;line-height:1;font-family:ASTERA;-inkscape-font-specification:ASTERA;text-align:center;text-anchor:middle;fill:#00c8ea;fill-opacity:1"
         id="path4555" />
      <path
         d="m 309.72559,287.64338 h 15.60937 q 0.23438,0.0469 0.23438,0.23437 V 317.034 q 0,6.60938 5.76562,8.625 1.3125,0.375 2.4375,0.375 h 28.6875 v -38.15625 q 0.0469,-0.23437 0.23438,-0.23437 h 15.65625 q 0.23437,0.0469 0.23437,0.23437 v 49.82813 q 0,0.23437 -0.23437,0.23437 h -53.57813 q -6.84375,0 -12.23437,-5.71875 -3.04688,-3.70312 -3.04688,-7.875 v -36.46875 q 0.0469,-0.23437 0.23438,-0.23437 z"
         style="font-style:normal;font-variant:normal;font-weight:normal;font-stretch:normal;font-size:96px;line-height:1;font-family:ASTERA;-inkscape-font-specification:ASTERA;text-align:center;text-anchor:middle;fill:#00c8ea;fill-opacity:1"
         id="path4557" />
      <path
         d="m 383.60059,287.64338 h 68.625 q 0.23437,0.0469 0.23437,0.23437 v 11.48438 q 0,0.23437 -0.23437,0.23437 h -26.20313 v 38.10938 q 0,0.23437 -0.23437,0.23437 h -15.65625 q -0.23438,0 -0.23438,-0.23437 V 299.5965 h -26.29687 q -0.23438,0 -0.23438,-0.23437 v -11.48438 q 0.0469,-0.23437 0.23438,-0.23437 z"
         style="font-style:normal;font-variant:normal;font-weight:normal;font-stretch:normal;font-size:96px;line-height:1;font-family:ASTERA;-inkscape-font-specification:ASTERA;text-align:center;text-anchor:middle;fill:#00c8ea;fill-opacity:1"
         id="path4559" />
      <path
         d="m 457.47559,287.64338 h 15.60937 q 0.23438,0.0469 0.23438,0.23437 v 49.82813 q 0,0.23437 -0.23438,0.23437 h -15.60937 q -0.23438,0 -0.23438,-0.23437 v -49.82813 q 0.0469,-0.23437 0.23438,-0.23437 z"
         style="font-style:normal;font-variant:normal;font-weight:normal;font-stretch:normal;font-size:96px;line-height:1;font-family:ASTERA;-inkscape-font-specification:ASTERA;text-align:center;text-anchor:middle;fill:#00c8ea;fill-opacity:1"
         id="path4561" />
      <path
         d="m 493.56934,287.64338 h 37.35937 q 8.4375,0 13.73438,6.51562 2.48437,3.46875 2.48437,7.3125 v 22.73438 q 0,7.64062 -8.57812,12.04687 -3.60938,1.6875 -7.64063,1.6875 h -36.89062 q -8.20313,0 -13.64063,-6.65625 -2.34375,-3.32812 -2.34375,-6.9375 v -22.96875 q 0,-8.01562 9.46875,-12.46875 3.75,-1.26562 6.04688,-1.26562 z m 0.5625,20.15625 v 9.89062 q 0,6.09375 6.32812,8.10938 0.89063,0.23437 1.875,0.23437 h 20.625 q 5.53125,0 7.73438,-5.85937 0.32812,-0.84375 0.32812,-2.25 v -9.5625 q 0,-6.42188 -5.95312,-8.57813 -1.73438,-0.1875 -3.04688,-0.1875 h -19.6875 q -5.67187,0 -7.875,5.8125 -0.32812,1.17188 -0.32812,2.39063 z"
         style="font-style:normal;font-variant:normal;font-weight:normal;font-stretch:normal;font-size:96px;line-height:1;font-family:ASTERA;-inkscape-font-specification:ASTERA;text-align:center;text-anchor:middle;fill:#00c8ea;fill-opacity:1"
         id="path4563" />
      <path
         d="m 552.16309,287.64338 h 53.29687 q 7.125,0 12.9375,6.1875 2.625,3.70312 2.625,7.3125 v 36.5625 q 0,0.23437 -0.23437,0.23437 h -15.65625 q -0.23438,0 -0.23438,-0.23437 V 308.5965 q 0,-6.65625 -5.71875,-8.67187 -1.35937,-0.32813 -2.48437,-0.32813 h -28.6875 v 38.10938 q 0,0.23437 -0.23438,0.23437 h -15.60937 q -0.23438,0 -0.23438,-0.23437 v -49.82813 q 0.0469,-0.23437 0.23438,-0.23437 z"
         style="font-style:normal;font-variant:normal;font-weight:normal;font-stretch:normal;font-size:96px;line-height:1;font-family:ASTERA;-inkscape-font-specification:ASTERA;text-align:center;text-anchor:middle;fill:#00c8ea;fill-opacity:1"
         id="path4565" />
      <path
         d="m 641.45996,287.64338 h 53.20313 q 0.23437,0.0469 0.23437,0.23437 v 11.48438 q 0,0.23437 -0.23437,0.23437 h -48.70313 q -4.07812,0.51563 -4.07812,3.9375 0,2.29688 2.48437,3.46875 0.75,0.32813 1.78125,0.32813 h 33.09375 q 6.98438,0 12.375,5.53125 3.28125,3.79687 3.28125,8.10937 v 3.46875 q 0,7.35938 -8.57812,11.90625 -3.5625,1.59375 -7.3125,1.59375 h -52.96875 q -0.23438,0 -0.23438,-0.23437 V 326.2215 q 0.0469,-0.1875 0.23438,-0.1875 h 48.46875 q 2.95312,0 4.07812,-2.625 0.1875,-1.125 0.1875,-1.3125 0,-2.34375 -2.4375,-3.51562 -0.75,-0.32813 -1.82812,-0.32813 h -32.625 q -8.0625,0 -13.5,-6.28125 -2.57813,-3.42187 -2.57813,-7.21875 V 301.284 q 0,-6.89062 7.64063,-11.39062 4.35937,-2.01563 8.01562,-2.25 z"
         style="font-style:normal;font-variant:normal;font-weight:normal;font-stretch:normal;font-size:96px;line-height:1;font-family:ASTERA;-inkscape-font-specification:ASTERA;text-align:center;text-anchor:middle;fill:#00c8ea;fill-opacity:1"
         id="path4567" />
    </g>
  </g>
</svg>
